<svg width="28" height="28" viewBox="0 0 28 28" fill="none" xmlns="http://www.w3.org/2000/svg">
<path fill-rule="evenodd" clip-rule="evenodd" d="M9.48104 6.98097C9.48104 6.37435 9.64451 5.7053 10.1924 5.44482C10.4946 5.30112 10.8052 5.17214 11.1232 5.0588C11.695 4.85502 12.2841 5.21283 12.7133 5.64205C13.6896 6.61836 15.2725 6.61836 16.2488 5.64205C16.678 5.21284 17.2671 4.85503 17.8389 5.05881C18.1569 5.17214 18.4675 5.30112 18.7697 5.44482C19.3176 5.7053 19.481 6.37435 19.481 6.98097C19.481 8.36168 20.6003 9.48097 21.981 9.48097C22.5877 9.48097 23.2568 9.64444 23.5173 10.1923C23.6609 10.4945 23.7899 10.805 23.9032 11.1229C24.107 11.6948 23.7491 12.2839 23.3199 12.7132C22.3436 13.6895 22.3436 15.2724 23.3199 16.2487C23.7492 16.678 24.1071 17.2672 23.9033 17.8391C23.79 18.157 23.661 18.4674 23.5174 18.7696C23.2569 19.3175 22.5877 19.481 21.981 19.481C20.6003 19.481 19.481 20.6003 19.481 21.981C19.481 22.5877 19.3176 23.2569 18.7696 23.5174C18.4675 23.661 18.157 23.79 17.8392 23.9033C17.2673 24.1071 16.6781 23.7492 16.2488 23.3199C15.2725 22.3436 13.6896 22.3436 12.7133 23.3199C12.284 23.7492 11.6948 24.1071 11.1229 23.9033C10.805 23.79 10.4946 23.661 10.1924 23.5174C9.6445 23.2569 9.48104 22.5877 9.48104 21.981C9.48104 20.6003 8.36175 19.481 6.98104 19.481C6.37434 19.481 5.70518 19.3175 5.44469 18.7696C5.30105 18.4674 5.17211 18.157 5.05881 17.8391C4.85499 17.2672 5.2129 16.678 5.64219 16.2487C6.6185 15.2724 6.6185 13.6895 5.64219 12.7132C5.21292 12.2839 4.85504 11.6948 5.05887 11.1229C5.17219 10.805 5.30115 10.4945 5.44482 10.1923C5.70532 9.64444 6.37439 9.48097 6.98104 9.48097C8.36175 9.48097 9.48104 8.36168 9.48104 6.98097ZM14.481 17.4812C16.1379 17.4812 17.481 16.138 17.481 14.4812C17.481 12.8243 16.1379 11.4812 14.481 11.4812C12.8242 11.4812 11.481 12.8243 11.481 14.4812C11.481 16.138 12.8242 17.4812 14.481 17.4812Z" fill="white"/>
</svg>
