<svg width="28" height="28" viewBox="0 0 28 28" fill="none" xmlns="http://www.w3.org/2000/svg">
<path fill-rule="evenodd" clip-rule="evenodd" d="M5.5 5.5C4.39543 5.5 3.5 6.39543 3.5 7.5L3.5 20.5C3.5 21.6046 4.39543 22.5 5.5 22.5L22.5 22.5C23.6046 22.5 24.5 21.6046 24.5 20.5L24.5 7.5C24.5 6.39543 23.6046 5.5 22.5 5.5L5.5 5.5ZM8.6499 9.71429C7.54533 9.71429 6.6499 10.6097 6.6499 11.7143L6.6499 16.2857C6.6499 17.3903 7.54533 18.2857 8.6499 18.2857H13.0499C14.1545 18.2857 15.0499 17.3903 15.0499 16.2857V11.7143C15.0499 10.6097 14.1545 9.71429 13.0499 9.71429L8.6499 9.71429ZM17.1499 11.7856C17.1499 11.2334 17.5976 10.7856 18.1499 10.7856H21.3999C21.9522 10.7856 22.3999 11.2334 22.3999 11.7856V11.9285C22.3999 12.4808 21.9522 12.9285 21.3999 12.9285H18.1499C17.5976 12.9285 17.1499 12.4808 17.1499 11.9285V11.7856ZM19.2 15.0714C18.6477 15.0714 18.2 15.5191 18.2 16.0714V16.2142C18.2 16.7665 18.6477 17.2142 19.2 17.2142L21.4 17.2142C21.9522 17.2142 22.4 16.7665 22.4 16.2142V16.0714C22.4 15.5191 21.9522 15.0714 21.4 15.0714L19.2 15.0714Z" fill="white"/>
</svg>
