<svg width="28" height="28" viewBox="0 0 28 28" fill="none" xmlns="http://www.w3.org/2000/svg">
<path d="M17.9646 4C17.6841 3.99997 17.411 3.99994 17.1797 4.01883C16.9258 4.03959 16.6261 4.08855 16.3245 4.24221C15.9063 4.45527 15.5664 4.79522 15.3533 5.21336C15.1997 5.51494 15.1507 5.81465 15.1299 6.06864C15.111 6.29993 15.1111 6.57303 15.1111 6.85345V12.2577C15.1111 12.5381 15.111 12.8112 15.1299 13.0425C15.1507 13.2965 15.1997 13.5962 15.3533 13.8978C15.5664 14.3159 15.9063 14.6559 16.3245 14.8689C16.6261 15.0226 16.9258 15.0715 17.1797 15.0923C17.411 15.1112 17.6842 15.1112 17.9646 15.1111H21.1465C21.427 15.1112 21.7001 15.1112 21.9314 15.0923C22.1854 15.0715 22.4851 15.0226 22.7866 14.8689C23.2048 14.6559 23.5447 14.3159 23.7578 13.8978C23.9115 13.5962 23.9604 13.2965 23.9812 13.0425C24.0001 12.8112 24 12.5381 24 12.2577V6.85345C24 6.57303 24.0001 6.29993 23.9812 6.06864C23.9604 5.81465 23.9115 5.51494 23.7578 5.21336C23.5447 4.79522 23.2048 4.45527 22.7866 4.24221C22.4851 4.08855 22.1854 4.03959 21.9314 4.01883C21.7001 3.99994 21.427 3.99997 21.1466 4L17.9646 4Z" fill="white"/>
<path d="M6.85345 12.8889C6.57303 12.8889 6.29992 12.8888 6.06864 12.9077C5.81465 12.9285 5.51494 12.9774 5.21336 13.1311C4.79522 13.3442 4.45527 13.6841 4.24221 14.1022C4.08855 14.4038 4.03959 14.7035 4.01883 14.9575C3.99994 15.1888 3.99997 15.4619 4 15.7423L4 21.1466C3.99997 21.427 3.99994 21.7001 4.01883 21.9314C4.03959 22.1854 4.08855 22.4851 4.24221 22.7866C4.45527 23.2048 4.79522 23.5447 5.21336 23.7578C5.51494 23.9115 5.81465 23.9604 6.06864 23.9812C6.29993 24.0001 6.57304 24 6.85347 24H10.0354C10.3159 24 10.589 24.0001 10.8203 23.9812C11.0743 23.9604 11.374 23.9115 11.6755 23.7578C12.0937 23.5447 12.4336 23.2048 12.6467 22.7866C12.8004 22.4851 12.8493 22.1854 12.8701 21.9314C12.889 21.7001 12.8889 21.427 12.8889 21.1466V15.7423C12.8889 15.4619 12.889 15.1888 12.8701 14.9575C12.8493 14.7035 12.8004 14.4038 12.6467 14.1022C12.4336 13.6841 12.0937 13.3442 11.6755 13.1311C11.374 12.9774 11.0743 12.9285 10.8203 12.9077C10.589 12.8888 10.3159 12.8889 10.0355 12.8889H6.85345Z" fill="white"/>
<path d="M6.85345 4C6.57303 3.99997 6.29992 3.99994 6.06864 4.01883C5.81465 4.03959 5.51494 4.08855 5.21336 4.24221C4.79522 4.45527 4.45527 4.79522 4.24221 5.21336C4.08855 5.51494 4.03959 5.81465 4.01883 6.06864C3.99994 6.29992 3.99997 6.57302 4 6.85344L4 7.81323C3.99997 8.09365 3.99994 8.36676 4.01883 8.59804C4.03959 8.85203 4.08855 9.15174 4.24221 9.45332C4.45527 9.87146 4.79522 10.2114 5.21336 10.4245C5.51494 10.5781 5.81465 10.6271 6.06864 10.6478C6.29993 10.6667 6.57303 10.6667 6.85345 10.6667H10.0354C10.3159 10.6667 10.589 10.6667 10.8203 10.6478C11.0743 10.6271 11.374 10.5781 11.6755 10.4245C12.0937 10.2114 12.4336 9.87146 12.6467 9.45332C12.8004 9.15174 12.8493 8.85203 12.8701 8.59804C12.889 8.36676 12.8889 8.09368 12.8889 7.81326V6.85345C12.8889 6.57304 12.889 6.29992 12.8701 6.06864C12.8493 5.81465 12.8004 5.51494 12.6467 5.21336C12.4336 4.79522 12.0937 4.45527 11.6755 4.24221C11.374 4.08855 11.0743 4.03959 10.8203 4.01883C10.589 3.99994 10.3159 3.99997 10.0355 4L6.85345 4Z" fill="white"/>
<path d="M17.9646 17.3333C17.6841 17.3333 17.411 17.3333 17.1797 17.3522C16.9258 17.3729 16.6261 17.4219 16.3245 17.5755C15.9063 17.7886 15.5664 18.1286 15.3533 18.5467C15.1997 18.8483 15.1507 19.148 15.1299 19.402C15.111 19.6333 15.1111 19.9064 15.1111 20.1868V21.1466C15.1111 21.427 15.111 21.7001 15.1299 21.9314C15.1507 22.1854 15.1997 22.4851 15.3533 22.7866C15.5664 23.2048 15.9063 23.5447 16.3245 23.7578C16.6261 23.9115 16.9258 23.9604 17.1797 23.9812C17.411 24.0001 17.6841 24 17.9646 24H21.1466C21.427 24 21.7001 24.0001 21.9314 23.9812C22.1854 23.9604 22.4851 23.9115 22.7866 23.7578C23.2048 23.5447 23.5447 23.2048 23.7578 22.7866C23.9115 22.4851 23.9604 22.1854 23.9812 21.9314C24.0001 21.7001 24 21.427 24 21.1466V20.1868C24 19.9064 24.0001 19.6333 23.9812 19.402C23.9604 19.148 23.9115 18.8483 23.7578 18.5467C23.5447 18.1286 23.2048 17.7886 22.7866 17.5755C22.4851 17.4219 22.1854 17.3729 21.9314 17.3522C21.7001 17.3333 21.427 17.3333 21.1466 17.3333H17.9646Z" fill="white"/>
</svg>
