<svg width="28" height="28" viewBox="0 0 28 28" fill="none" xmlns="http://www.w3.org/2000/svg">
<path d="M13.3861 4.47751C13.7472 4.19665 14.2528 4.19665 14.6139 4.47751L23.2279 11.1772C23.7151 11.5562 24 12.1388 24 12.7559V23C24 23.5523 23.5523 24 23 24H17.2222C16.6699 24 16.2222 23.5523 16.2222 23V17.2222C16.2222 16.6699 15.7745 16.2222 15.2222 16.2222H12.7778C12.2255 16.2222 11.7778 16.6699 11.7778 17.2222V23C11.7778 23.5523 11.3301 24 10.7778 24H5C4.44772 24 4 23.5523 4 23V12.7559C4 12.1388 4.28495 11.5562 4.77212 11.1772L13.3861 4.47751Z" fill="white"/>
</svg>
