<svg width="59" height="59" viewBox="0 0 59 59" fill="none" xmlns="http://www.w3.org/2000/svg">
<g clip-path="url(#clip0_1044_3703)">
<circle cx="29.4998" cy="29.5001" r="25.0472" fill="url(#paint0_radial_1044_3703)"/>
<path d="M50.0944 29.5C50.0944 40.8739 40.874 50.0943 29.5001 50.0943C18.1262 50.0943 8.90576 40.8739 8.90576 29.5C8.90576 18.126 18.1262 8.90564 29.5001 8.90564C40.874 8.90564 50.0944 18.126 50.0944 29.5Z" fill="url(#paint1_radial_1044_3703)" fill-opacity="0.2"/>
<circle cx="29.4999" cy="29.5" r="16.1415" fill="url(#paint2_radial_1044_3703)" fill-opacity="0.5"/>
<circle cx="29.5002" cy="29.5" r="11.6887" fill="url(#paint3_radial_1044_3703)" fill-opacity="0.5"/>
<path fill-rule="evenodd" clip-rule="evenodd" d="M18.9243 23.1918C18.9243 21.4499 20.3448 20.0377 22.097 20.0377H36.9026C38.6548 20.0377 40.0753 21.4499 40.0753 23.1918V35.8082C40.0753 37.5501 38.6548 38.9622 36.9026 38.9622H22.097C20.3448 38.9622 18.9243 37.5501 18.9243 35.8082V23.1918ZM22.097 25.2945C22.097 24.7139 22.5704 24.2432 23.1545 24.2432H27.3847C27.9688 24.2432 28.4422 24.7139 28.4422 25.2945V29.5C28.4422 30.0806 27.9688 30.5513 27.3847 30.5513H23.1545C22.5704 30.5513 22.097 30.0806 22.097 29.5V25.2945ZM31.6149 24.2432C31.0308 24.2432 30.5573 24.7139 30.5573 25.2945C30.5573 25.8752 31.0308 26.3459 31.6149 26.3459H35.8451C36.4291 26.3459 36.9026 25.8752 36.9026 25.2945C36.9026 24.7139 36.4291 24.2432 35.8451 24.2432H31.6149ZM31.6149 29.5C31.6149 28.9193 32.0884 28.4486 32.6724 28.4486H35.8451C36.4291 28.4486 36.9026 28.9193 36.9026 29.5C36.9026 30.0806 36.4291 30.5513 35.8451 30.5513H32.6724C32.0884 30.5513 31.6149 30.0806 31.6149 29.5ZM23.1545 32.6541C22.5704 32.6541 22.097 33.1248 22.097 33.7054C22.097 34.2861 22.5704 34.7568 23.1545 34.7568H35.8451C36.4291 34.7568 36.9026 34.2861 36.9026 33.7054C36.9026 33.1248 36.4291 32.6541 35.8451 32.6541H23.1545Z" fill="white"/>
<g filter="url(#filter0_bdiiiiii_1044_3703)">
<rect width="59" height="59" rx="29.5" fill="white" fill-opacity="0.01" shape-rendering="crispEdges"/>
</g>
<g filter="url(#filter1_bdiiiiii_1044_3703)">
<rect width="59" height="59" rx="29.5" fill="white" fill-opacity="0.01" shape-rendering="crispEdges"/>
</g>
<circle cx="29.5" cy="29.5" r="29.5" fill="url(#paint4_radial_1044_3703)" fill-opacity="0.1"/>
<path d="M53.4338 29.5C53.4338 42.7184 42.7182 53.434 29.4999 53.434C16.2815 53.434 5.56592 42.7184 5.56592 29.5C5.56592 16.2816 16.2815 5.56604 29.4999 5.56604C42.7182 5.56604 53.4338 16.2816 53.4338 29.5Z" fill="url(#paint5_radial_1044_3703)" fill-opacity="0.2"/>
<circle cx="29.4998" cy="29.5" r="18.7591" fill="url(#paint6_radial_1044_3703)" fill-opacity="0.5"/>
<circle cx="29.5002" cy="29.5" r="13.5841" fill="url(#paint7_radial_1044_3703)"/>
<path fill-rule="evenodd" clip-rule="evenodd" d="M38.9624 20.0377C38.9624 18.8081 37.9656 17.8113 36.736 17.8113L22.2643 17.8113C21.0347 17.8113 20.0379 18.8081 20.0379 20.0377L20.0379 38.9622C20.0379 40.1918 21.0347 41.1886 22.2643 41.1886L36.736 41.1886C37.9656 41.1886 38.9624 40.1918 38.9624 38.9622L38.9624 20.0377ZM34.2708 23.5442C34.2708 22.3146 33.274 21.3178 32.0444 21.3178L26.9554 21.3178C25.7258 21.3178 24.729 22.3146 24.729 23.5442L24.729 28.4423C24.729 29.672 25.7258 30.6688 26.9554 30.6688L32.0444 30.6688C33.274 30.6688 34.2708 29.672 34.2708 28.4423L34.2708 23.5442ZM31.9649 33.0064C32.5797 33.0064 33.0781 33.5048 33.0781 34.1196L33.0781 37.7376C33.0781 38.3524 32.5797 38.8508 31.9649 38.8508L31.8058 38.8508C31.191 38.8508 30.6926 38.3524 30.6926 37.7376L30.6926 34.1196C30.6926 33.5048 31.191 33.0064 31.8058 33.0064L31.9649 33.0064ZM28.3072 35.2886C28.3072 34.6738 27.8088 34.1754 27.194 34.1754L27.035 34.1754C26.4202 34.1754 25.9218 34.6738 25.9218 35.2886L25.9218 37.7376C25.9218 38.3524 26.4202 38.8508 27.035 38.8508L27.194 38.8508C27.8088 38.8508 28.3072 38.3524 28.3072 37.7376L28.3072 35.2886Z" fill="white"/>
</g>
<defs>
<filter id="filter0_bdiiiiii_1044_3703" x="-278.302" y="-273.849" width="615.604" height="615.604" filterUnits="userSpaceOnUse" color-interpolation-filters="sRGB">
<feFlood flood-opacity="0" result="BackgroundImageFix"/>
<feGaussianBlur in="BackgroundImage" stdDeviation="3.97574"/>
<feComposite in2="SourceAlpha" operator="in" result="effect1_backgroundBlur_1044_3703"/>
<feColorMatrix in="SourceAlpha" type="matrix" values="0 0 0 0 0 0 0 0 0 0 0 0 0 0 0 0 0 0 127 0" result="hardAlpha"/>
<feOffset dy="4.45283"/>
<feGaussianBlur stdDeviation="139.151"/>
<feComposite in2="hardAlpha" operator="out"/>
<feColorMatrix type="matrix" values="0 0 0 0 0.836417 0 0 0 0 0.370833 0 0 0 0 1 0 0 0 0.83 0"/>
<feBlend mode="normal" in2="effect1_backgroundBlur_1044_3703" result="effect2_dropShadow_1044_3703"/>
<feBlend mode="normal" in="SourceGraphic" in2="effect2_dropShadow_1044_3703" result="shape"/>
<feColorMatrix in="SourceAlpha" type="matrix" values="0 0 0 0 0 0 0 0 0 0 0 0 0 0 0 0 0 0 127 0" result="hardAlpha"/>
<feOffset dy="0.318059"/>
<feGaussianBlur stdDeviation="0.636119"/>
<feComposite in2="hardAlpha" operator="arithmetic" k2="-1" k3="1"/>
<feColorMatrix type="matrix" values="0 0 0 0 0.603922 0 0 0 0 0.572549 0 0 0 0 0.823529 0 0 0 0.3 0"/>
<feBlend mode="normal" in2="shape" result="effect3_innerShadow_1044_3703"/>
<feColorMatrix in="SourceAlpha" type="matrix" values="0 0 0 0 0 0 0 0 0 0 0 0 0 0 0 0 0 0 127 0" result="hardAlpha"/>
<feMorphology radius="3.81671" operator="dilate" in="SourceAlpha" result="effect4_innerShadow_1044_3703"/>
<feOffset dy="7.79245"/>
<feGaussianBlur stdDeviation="3.97574"/>
<feComposite in2="hardAlpha" operator="arithmetic" k2="-1" k3="1"/>
<feColorMatrix type="matrix" values="0 0 0 0 0.792157 0 0 0 0 0.67451 0 0 0 0 1 0 0 0 0.3 0"/>
<feBlend mode="normal" in2="effect3_innerShadow_1044_3703" result="effect4_innerShadow_1044_3703"/>
<feColorMatrix in="SourceAlpha" type="matrix" values="0 0 0 0 0 0 0 0 0 0 0 0 0 0 0 0 0 0 127 0" result="hardAlpha"/>
<feOffset dy="0.0795148"/>
<feGaussianBlur stdDeviation="1.5903"/>
<feComposite in2="hardAlpha" operator="arithmetic" k2="-1" k3="1"/>
<feColorMatrix type="matrix" values="0 0 0 0 0.890196 0 0 0 0 0.870588 0 0 0 0 1 0 0 0 0.2 0"/>
<feBlend mode="normal" in2="effect4_innerShadow_1044_3703" result="effect5_innerShadow_1044_3703"/>
<feColorMatrix in="SourceAlpha" type="matrix" values="0 0 0 0 0 0 0 0 0 0 0 0 0 0 0 0 0 0 127 0" result="hardAlpha"/>
<feOffset dy="-6.52022"/>
<feGaussianBlur stdDeviation="2.7035"/>
<feComposite in2="hardAlpha" operator="arithmetic" k2="-1" k3="1"/>
<feColorMatrix type="matrix" values="0 0 0 0 0.427451 0 0 0 0 0.266667 0 0 0 0 0.564706 0 0 0 0.3 0"/>
<feBlend mode="normal" in2="effect5_innerShadow_1044_3703" result="effect6_innerShadow_1044_3703"/>
<feColorMatrix in="SourceAlpha" type="matrix" values="0 0 0 0 0 0 0 0 0 0 0 0 0 0 0 0 0 0 127 0" result="hardAlpha"/>
<feMorphology radius="0.318059" operator="dilate" in="SourceAlpha" result="effect7_innerShadow_1044_3703"/>
<feOffset dy="0.556604"/>
<feGaussianBlur stdDeviation="0.437331"/>
<feComposite in2="hardAlpha" operator="arithmetic" k2="-1" k3="1"/>
<feColorMatrix type="matrix" values="0 0 0 0 1 0 0 0 0 1 0 0 0 0 1 0 0 0 1 0"/>
<feBlend mode="normal" in2="effect6_innerShadow_1044_3703" result="effect7_innerShadow_1044_3703"/>
<feColorMatrix in="SourceAlpha" type="matrix" values="0 0 0 0 0 0 0 0 0 0 0 0 0 0 0 0 0 0 127 0" result="hardAlpha"/>
<feMorphology radius="2.86253" operator="dilate" in="SourceAlpha" result="effect8_innerShadow_1044_3703"/>
<feOffset dy="3.10108"/>
<feGaussianBlur stdDeviation="2.22642"/>
<feComposite in2="hardAlpha" operator="arithmetic" k2="-1" k3="1"/>
<feColorMatrix type="matrix" values="0 0 0 0 1 0 0 0 0 1 0 0 0 0 1 0 0 0 0.5 0"/>
<feBlend mode="normal" in2="effect7_innerShadow_1044_3703" result="effect8_innerShadow_1044_3703"/>
</filter>
<filter id="filter1_bdiiiiii_1044_3703" x="-278.302" y="-273.849" width="615.604" height="615.604" filterUnits="userSpaceOnUse" color-interpolation-filters="sRGB">
<feFlood flood-opacity="0" result="BackgroundImageFix"/>
<feGaussianBlur in="BackgroundImage" stdDeviation="3.97574"/>
<feComposite in2="SourceAlpha" operator="in" result="effect1_backgroundBlur_1044_3703"/>
<feColorMatrix in="SourceAlpha" type="matrix" values="0 0 0 0 0 0 0 0 0 0 0 0 0 0 0 0 0 0 127 0" result="hardAlpha"/>
<feOffset dy="4.45283"/>
<feGaussianBlur stdDeviation="139.151"/>
<feComposite in2="hardAlpha" operator="out"/>
<feColorMatrix type="matrix" values="0 0 0 0 0.836417 0 0 0 0 0.370833 0 0 0 0 1 0 0 0 0.83 0"/>
<feBlend mode="normal" in2="effect1_backgroundBlur_1044_3703" result="effect2_dropShadow_1044_3703"/>
<feBlend mode="normal" in="SourceGraphic" in2="effect2_dropShadow_1044_3703" result="shape"/>
<feColorMatrix in="SourceAlpha" type="matrix" values="0 0 0 0 0 0 0 0 0 0 0 0 0 0 0 0 0 0 127 0" result="hardAlpha"/>
<feOffset dy="0.318059"/>
<feGaussianBlur stdDeviation="0.636119"/>
<feComposite in2="hardAlpha" operator="arithmetic" k2="-1" k3="1"/>
<feColorMatrix type="matrix" values="0 0 0 0 0.603922 0 0 0 0 0.572549 0 0 0 0 0.823529 0 0 0 0.3 0"/>
<feBlend mode="normal" in2="shape" result="effect3_innerShadow_1044_3703"/>
<feColorMatrix in="SourceAlpha" type="matrix" values="0 0 0 0 0 0 0 0 0 0 0 0 0 0 0 0 0 0 127 0" result="hardAlpha"/>
<feMorphology radius="3.81671" operator="dilate" in="SourceAlpha" result="effect4_innerShadow_1044_3703"/>
<feOffset dy="7.79245"/>
<feGaussianBlur stdDeviation="3.97574"/>
<feComposite in2="hardAlpha" operator="arithmetic" k2="-1" k3="1"/>
<feColorMatrix type="matrix" values="0 0 0 0 0.792157 0 0 0 0 0.67451 0 0 0 0 1 0 0 0 0.3 0"/>
<feBlend mode="normal" in2="effect3_innerShadow_1044_3703" result="effect4_innerShadow_1044_3703"/>
<feColorMatrix in="SourceAlpha" type="matrix" values="0 0 0 0 0 0 0 0 0 0 0 0 0 0 0 0 0 0 127 0" result="hardAlpha"/>
<feOffset dy="0.0795148"/>
<feGaussianBlur stdDeviation="1.5903"/>
<feComposite in2="hardAlpha" operator="arithmetic" k2="-1" k3="1"/>
<feColorMatrix type="matrix" values="0 0 0 0 0.890196 0 0 0 0 0.870588 0 0 0 0 1 0 0 0 0.2 0"/>
<feBlend mode="normal" in2="effect4_innerShadow_1044_3703" result="effect5_innerShadow_1044_3703"/>
<feColorMatrix in="SourceAlpha" type="matrix" values="0 0 0 0 0 0 0 0 0 0 0 0 0 0 0 0 0 0 127 0" result="hardAlpha"/>
<feOffset dy="-6.52022"/>
<feGaussianBlur stdDeviation="2.7035"/>
<feComposite in2="hardAlpha" operator="arithmetic" k2="-1" k3="1"/>
<feColorMatrix type="matrix" values="0 0 0 0 0.427451 0 0 0 0 0.266667 0 0 0 0 0.564706 0 0 0 0.3 0"/>
<feBlend mode="normal" in2="effect5_innerShadow_1044_3703" result="effect6_innerShadow_1044_3703"/>
<feColorMatrix in="SourceAlpha" type="matrix" values="0 0 0 0 0 0 0 0 0 0 0 0 0 0 0 0 0 0 127 0" result="hardAlpha"/>
<feMorphology radius="0.318059" operator="dilate" in="SourceAlpha" result="effect7_innerShadow_1044_3703"/>
<feOffset dy="0.556604"/>
<feGaussianBlur stdDeviation="0.437331"/>
<feComposite in2="hardAlpha" operator="arithmetic" k2="-1" k3="1"/>
<feColorMatrix type="matrix" values="0 0 0 0 1 0 0 0 0 1 0 0 0 0 1 0 0 0 1 0"/>
<feBlend mode="normal" in2="effect6_innerShadow_1044_3703" result="effect7_innerShadow_1044_3703"/>
<feColorMatrix in="SourceAlpha" type="matrix" values="0 0 0 0 0 0 0 0 0 0 0 0 0 0 0 0 0 0 127 0" result="hardAlpha"/>
<feMorphology radius="2.86253" operator="dilate" in="SourceAlpha" result="effect8_innerShadow_1044_3703"/>
<feOffset dy="3.10108"/>
<feGaussianBlur stdDeviation="2.22642"/>
<feComposite in2="hardAlpha" operator="arithmetic" k2="-1" k3="1"/>
<feColorMatrix type="matrix" values="0 0 0 0 1 0 0 0 0 1 0 0 0 0 1 0 0 0 0.5 0"/>
<feBlend mode="normal" in2="effect7_innerShadow_1044_3703" result="effect8_innerShadow_1044_3703"/>
</filter>
<radialGradient id="paint0_radial_1044_3703" cx="0" cy="0" r="1" gradientUnits="userSpaceOnUse" gradientTransform="translate(29.4998 29.5) rotate(90.4007) scale(79.5963)">
<stop/>
<stop offset="1" stop-color="#5F5C60"/>
</radialGradient>
<radialGradient id="paint1_radial_1044_3703" cx="0" cy="0" r="1" gradientUnits="userSpaceOnUse" gradientTransform="translate(-2.97115 29.5) rotate(32.3792) scale(120.029 155.562)">
<stop stop-color="#553AE8"/>
<stop offset="1" stop-color="#E46EE5"/>
</radialGradient>
<radialGradient id="paint2_radial_1044_3703" cx="0" cy="0" r="1" gradientUnits="userSpaceOnUse" gradientTransform="translate(-2.97135 29.5) rotate(32.3792) scale(120.029 155.562)">
<stop stop-color="#553AE8"/>
<stop offset="1" stop-color="#E46EE5"/>
</radialGradient>
<radialGradient id="paint3_radial_1044_3703" cx="0" cy="0" r="1" gradientUnits="userSpaceOnUse" gradientTransform="translate(5.98654 29.5) rotate(32.3792) scale(86.9173 112.648)">
<stop stop-color="#553AE8"/>
<stop offset="1" stop-color="#E46EE5"/>
</radialGradient>
<radialGradient id="paint4_radial_1044_3703" cx="0" cy="0" r="1" gradientUnits="userSpaceOnUse" gradientTransform="translate(-29.844 29.5) rotate(32.3792) scale(219.363 284.303)">
<stop stop-color="#553AE8"/>
<stop offset="1" stop-color="#E46EE5"/>
</radialGradient>
<radialGradient id="paint5_radial_1044_3703" cx="0" cy="0" r="1" gradientUnits="userSpaceOnUse" gradientTransform="translate(-1.11681 29.5) rotate(32.3792) scale(113.173 146.677)">
<stop stop-color="#553AE8"/>
<stop offset="1" stop-color="#E46EE5"/>
</radialGradient>
<radialGradient id="paint6_radial_1044_3703" cx="0" cy="0" r="1" gradientUnits="userSpaceOnUse" gradientTransform="translate(-8.23709 29.5) rotate(32.3792) scale(139.493 180.788)">
<stop stop-color="#553AE8"/>
<stop offset="1" stop-color="#E46EE5"/>
</radialGradient>
<radialGradient id="paint7_radial_1044_3703" cx="0" cy="0" r="1" gradientUnits="userSpaceOnUse" gradientTransform="translate(2.17346 29.5) rotate(32.3792) scale(101.012 130.916)">
<stop stop-color="#553AE8"/>
<stop offset="1" stop-color="#E46EE5"/>
</radialGradient>
<clipPath id="clip0_1044_3703">
<rect width="59" height="59" rx="29.5" fill="white"/>
</clipPath>
</defs>
</svg>
